<?xml version="1.0" encoding="UTF-8"?>
<svg version="1.1" xmlns="http://www.w3.org/2000/svg" width="500" height="500">
<path d="M0 0 C54.78 0 109.56 0 166 0 C166 25.74 166 51.48 166 78 C111.22 78 56.44 78 0 78 C0 52.26 0 26.52 0 0 Z M13 30 C13 38.58 13 47.16 13 56 C13.66 56 14.32 56 15 56 C15.05607422 54.84371094 15.05607422 54.84371094 15.11328125 53.6640625 C15.17902344 52.66117187 15.24476562 51.65828125 15.3125 50.625 C15.39951172 49.12839844 15.39951172 49.12839844 15.48828125 47.6015625 C15.65714844 46.74304688 15.82601562 45.88453125 16 45 C16.99 44.34 17.98 43.68 19 43 C19.25523438 43.56203125 19.51046875 44.1240625 19.7734375 44.703125 C21.15692781 47.29386482 22.79938583 49.45107845 24.625 51.75 C25.25664063 52.54921875 25.88828125 53.3484375 26.5390625 54.171875 C27.02117187 54.77515625 27.50328125 55.3784375 28 56 C28.66 55.67 29.32 55.34 30 55 C26.7 50.71 23.4 46.42 20 42 C22.03280902 38.61198496 23.6543398 36.05841489 26.1875 33.1875 C26.71730469 32.58292969 27.24710938 31.97835937 27.79296875 31.35546875 C28.19128906 30.90816406 28.58960938 30.46085937 29 30 C25.8731209 31.38132461 23.80079608 32.97903763 21.4375 35.4375 C20.85871094 36.03433594 20.27992187 36.63117188 19.68359375 37.24609375 C19.12800781 37.82488281 18.57242188 38.40367187 18 39 C17.01 39.99 16.02 40.98 15 42 C15 38.04 15 34.08 15 30 C14.34 30 13.68 30 13 30 Z M39 30 C39 38.58 39 47.16 39 56 C39.99 56 40.98 56 42 56 C42 47.42 42 38.84 42 30 C41.01 30 40.02 30 39 30 Z M51 30 C51 38.58 51 47.16 51 56 C51.99 56 52.98 56 54 56 C54 52.37 54 48.74 54 45 C57.47323226 45.57887204 59.49445237 46.37717442 61.734375 49.13671875 C63.22138899 51.3920233 64.64433433 53.66364001 66 56 C66.66 55.67 67.32 55.34 68 55 C67.6390625 54.44570313 67.278125 53.89140625 66.90625 53.3203125 C66.4421875 52.59585938 65.978125 51.87140625 65.5 51.125 C65.0359375 50.40570313 64.571875 49.68640625 64.09375 48.9453125 C63 47 63 47 63 45 C63.825 44.4225 64.65 43.845 65.5 43.25 C68.28461672 41.21384441 68.28461672 41.21384441 68.5 38 C67.95698679 34.74192075 67.31873852 33.31873852 65 31 C60.78779356 29.4202491 60.78779356 29.4202491 51 30 Z M85 30 C83.49172203 33.76757497 81.99481006 37.53956349 80.5 41.3125 C80.07074219 42.38435547 79.64148438 43.45621094 79.19921875 44.56054688 C78.59013672 46.10258789 78.59013672 46.10258789 77.96875 47.67578125 C77.40317383 49.0975769 77.40317383 49.0975769 76.82617188 50.5480957 C75.84034418 53.04259941 75.84034418 53.04259941 76 56 C76.66 56 77.32 56 78 56 C79.25664978 53.09399739 80 51.20395416 80 48 C83.96 48.33 87.92 48.66 92 49 C92.99 51.31 93.98 53.62 95 56 C95.66 55.67 96.32 55.34 97 55 C95.58114063 51.01393506 94.13685983 47.03756595 92.6875 43.0625 C92.28337891 41.92619141 91.87925781 40.78988281 91.46289062 39.61914062 C91.06650391 38.53955078 90.67011719 37.45996094 90.26171875 36.34765625 C89.90037842 35.34742432 89.53903809 34.34719238 89.16674805 33.31665039 C88.1730567 30.66599108 88.1730567 30.66599108 85 30 Z M105 30 C105 38.58 105 47.16 105 56 C105.66 56 106.32 56 107 56 C107 49.07 107 42.14 107 35 C107.66 35 108.32 35 109 35 C109.27851807 35.57524414 109.55703613 36.15048828 109.84399414 36.74316406 C111.79960026 40.56103587 114.13709247 44.13293157 116.4375 47.75 C116.92798828 48.54277344 117.41847656 49.33554687 117.92382812 50.15234375 C118.40142578 50.90128906 118.87902344 51.65023437 119.37109375 52.421875 C119.80349365 53.10862305 120.23589355 53.79537109 120.68139648 54.50292969 C121.11653564 54.99696289 121.5516748 55.49099609 122 56 C122.99 56 123.98 56 125 56 C125 47.42 125 38.84 125 30 C124.34 30 123.68 30 123 30 C123 36.93 123 43.86 123 51 C122.34 51 121.68 51 121 51 C120.78214844 50.34644531 120.56429687 49.69289063 120.33984375 49.01953125 C118.52080979 44.92007571 116.09263487 41.37879194 113.5625 37.6875 C113.07201172 36.94693359 112.58152344 36.20636719 112.07617188 35.44335938 C111.59857422 34.74404297 111.12097656 34.04472656 110.62890625 33.32421875 C110.19650635 32.68572998 109.76410645 32.04724121 109.31860352 31.3894043 C108.88346436 30.93090088 108.4483252 30.47239746 108 30 C107.01 30 106.02 30 105 30 Z M143 30 C139.31576987 38.55995596 136.05856432 47.2017469 133 56 C133.99 55.67 134.98 55.34 136 55 C137.22969878 51.48809191 137.22969878 51.48809191 138 48 C141.96 48 145.92 48 150 48 C150.66 50.31 151.32 52.62 152 55 C152.99 55 153.98 55 155 55 C153.58114063 51.01393506 152.13685983 47.03756595 150.6875 43.0625 C150.28337891 41.92619141 149.87925781 40.78988281 149.46289062 39.61914062 C149.06650391 38.53955078 148.67011719 37.45996094 148.26171875 36.34765625 C147.90037842 35.34742432 147.53903809 34.34719238 147.16674805 33.31665039 C146.1730567 30.66599108 146.1730567 30.66599108 143 30 Z " fill="#4B663E" transform="translate(84,211)"/>
<path d="M0 0 C1.21122801 -0.00199105 2.42245603 -0.0039821 3.67038792 -0.00603348 C5.0214281 -0.00318027 6.37246808 -0.00023467 7.72350788 0.00279331 C9.15327817 0.00235748 10.58304838 0.00148234 12.01281816 0.00020415 C15.9509948 -0.00203836 19.8891444 0.00197716 23.8273176 0.00698221 C28.07065829 0.01129 32.3139974 0.00984005 36.55733967 0.00907993 C43.91230539 0.00855491 51.26726226 0.01169948 58.62222576 0.01731777 C69.25634337 0.02543566 79.89045669 0.02804829 90.52457706 0.02930576 C107.77662483 0.03149583 125.02866788 0.03815468 142.28071308 0.04760838 C159.04210607 0.05678367 175.80349778 0.06386393 192.56489277 0.06811619 C193.59760507 0.06837891 194.63031737 0.06864164 195.69432398 0.06891232 C200.87500072 0.07021733 206.05567747 0.07148105 211.23635423 0.07272422 C254.23332244 0.08309542 297.23028192 0.10153296 340.22724628 0.12304783 C340.22724628 31.80304783 340.22724628 63.48304783 340.22724628 96.12304783 C224.72724628 96.12304783 109.22724628 96.12304783 -9.77275372 96.12304783 C-9.77275372 3.12304783 -9.77275372 3.12304783 -8.77275372 1.12304783 C-5.58949292 0.0619609 -3.34458079 -0.00120961 0 0 Z M-5.77275372 3.12304783 C-5.77275372 32.82304783 -5.77275372 62.52304783 -5.77275372 93.12304783 C107.08724628 93.12304783 219.94724628 93.12304783 336.22724628 93.12304783 C336.22724628 63.42304783 336.22724628 33.72304783 336.22724628 3.12304783 C223.36724628 3.12304783 110.50724628 3.12304783 -5.77275372 3.12304783 Z " fill="#345A17" transform="translate(84.77275371551514,201.87695217132568)"/>
<path d="M0 0 C1.02585205 -0.02876221 2.0517041 -0.05752441 3.10864258 -0.0871582 C4.880177 -0.13682739 4.880177 -0.13682739 6.6875 -0.1875 C11.73273818 -0.32895528 14.99329968 -0.24706569 19 3 C19.98515877 6.61224884 20.41963883 8.90893904 19.0625 12.4375 C18.5365625 13.2109375 18.5365625 13.2109375 18 14 C18.66 14 19.32 14 20 14 C21.52846661 17.05693322 21.23242445 19.62984547 21 23 C19.70946335 25.45201964 18.9443246 26.66850499 16.30859375 27.59375 C13.28597395 28.12564925 10.38033541 28.13187085 7.3125 28.125 C6.15363281 28.12757813 4.99476563 28.13015625 3.80078125 28.1328125 C1 28 1 28 0 27 C-0.08758003 25.00035018 -0.10696576 22.9976389 -0.09765625 20.99609375 C-0.09443359 19.78115234 -0.09121094 18.56621094 -0.08789062 17.31445312 C-0.07951172 16.03505859 -0.07113281 14.75566406 -0.0625 13.4375 C-0.05798828 12.15423828 -0.05347656 10.87097656 -0.04882812 9.54882812 C-0.03699545 6.36583978 -0.02051068 3.18294238 0 0 Z M7 6 C7 7.65 7 9.3 7 11 C8.65 11 10.3 11 12 11 C12.59070014 9.05396726 12.59070014 9.05396726 13 7 C11.93354885 5.70366379 11.93354885 5.70366379 9.4375 5.9375 C8.633125 5.958125 7.82875 5.97875 7 6 Z M7 16 C7 17.98 7 19.96 7 22 C8.98 22 10.96 22 13 22 C13.66 20.68 14.32 19.36 15 18 C13.10244856 15.65026182 13.10244856 15.65026182 9.875 15.875 C8.92625 15.91625 7.9775 15.9575 7 16 Z " fill="#466F5D" transform="translate(338,240)"/>
<path d="M0 0 C3.29769631 0.64520145 4.97782423 1.90307021 7.15625 4.421875 C7.96875 7.171875 7.96875 7.171875 8.15625 9.421875 C5.51625 9.421875 2.87625 9.421875 0.15625 9.421875 C-0.17375 8.761875 -0.50375 8.101875 -0.84375 7.421875 C-1.83375 7.421875 -2.82375 7.421875 -3.84375 7.421875 C-3.84375 8.081875 -3.84375 8.741875 -3.84375 9.421875 C-3.14507812 9.67582031 -2.44640625 9.92976562 -1.7265625 10.19140625 C-0.36144531 10.70767578 -0.36144531 10.70767578 1.03125 11.234375 C1.93617188 11.57082031 2.84109375 11.90726563 3.7734375 12.25390625 C6.15625 13.421875 6.15625 13.421875 8.15625 16.421875 C8.56814448 20.19757438 8.70919902 22.50830705 6.71875 25.796875 C2.99042567 28.16117823 -0.46151309 28.61934148 -4.84375 28.421875 C-8.28857204 27.23184557 -10.15040303 26.43037969 -12.21875 23.421875 C-12.84375 21.421875 -12.84375 21.421875 -12.84375 18.421875 C-11.565 18.36 -10.28625 18.298125 -8.96875 18.234375 C-7.88980469 18.18216797 -7.88980469 18.18216797 -6.7890625 18.12890625 C-6.14710938 18.22558594 -5.50515625 18.32226562 -4.84375 18.421875 C-4.18375 19.411875 -3.52375 20.401875 -2.84375 21.421875 C-1.85375 21.091875 -0.86375 20.761875 0.15625 20.421875 C0.15625 19.761875 0.15625 19.101875 0.15625 18.421875 C-0.45863281 18.24011719 -1.07351563 18.05835938 -1.70703125 17.87109375 C-2.51527344 17.61972656 -3.32351563 17.36835938 -4.15625 17.109375 C-4.95675781 16.86574219 -5.75726563 16.62210937 -6.58203125 16.37109375 C-9.00220105 15.35537482 -10.24671604 14.49247739 -11.84375 12.421875 C-12.48034594 8.12485241 -12.31514299 6.1365676 -9.90625 2.484375 C-6.31347407 0.0647504 -4.24438248 -0.25466295 0 0 Z " fill="#456C5A" transform="translate(373.84375,239.578125)"/>
<path d="M0 0 C2.31 0 4.62 0 7 0 C8.50514646 4.12314058 10.00324372 8.24880702 11.5 12.375 C11.92925781 13.550625 12.35851562 14.72625 12.80078125 15.9375 C13.20683594 17.05898438 13.61289062 18.18046875 14.03125 19.3359375 C14.40830078 20.37282715 14.78535156 21.4097168 15.17382812 22.47802734 C16 25 16 25 16 27 C13.69 27 11.38 27 9 27 C8.34 25.35 7.68 23.7 7 22 C4.69 22 2.38 22 0 22 C-0.99 24.475 -0.99 24.475 -2 27 C-4.31 27 -6.62 27 -9 27 C-6.43696551 17.84951721 -3.20468777 8.93993804 0 0 Z M3 10 C2.67 11.98 2.34 13.96 2 16 C2.99 16 3.98 16 5 16 C4.67 14.02 4.34 12.04 4 10 C3.67 10 3.34 10 3 10 Z " fill="#456D5B" transform="translate(321,240)"/>
<path d="M0 0 C0.33 0.66 0.66 1.32 1 2 C1.99 2 2.98 2 4 2 C4 30.38 4 58.76 4 88 C3.34 87.34 2.68 86.68 2 86 C2 88.31 2 90.62 2 93 C1.34 93 0.68 93 0 93 C0 62.31 0 31.62 0 0 Z " fill="#3C5A22" transform="translate(75,205)"/>
<path d="M0 0 C2.31 0 4.62 0 7 0 C7 6.93 7 13.86 7 21 C10.63 21 14.26 21 18 21 C18 22.98 18 24.96 18 27 C12.06 27 6.12 27 0 27 C0 18.09 0 9.18 0 0 Z " fill="#456B5B" transform="translate(293,240)"/>
<path d="M0 0 C7.2 -0.36 7.2 -0.36 10.5 1.125 C12 3 12 3 12.4375 6.0625 C12.293125 7.031875 12.14875 8.00125 12 9 C7.7975546 11.80163026 4.99895065 11.14489712 0 11 C0 7.37 0 3.74 0 0 Z " fill="#4D6541" transform="translate(138,243)"/>
<path d="M0 0 C0.66 0.33 1.32 0.66 2 1 C1.67 1.66 1.34 2.32 1 3 C1.66 3 2.32 3 3 3 C4.52846661 6.05693322 4.23242445 8.62984547 4 12 C2.7104799 14.4500882 1.94304157 15.66600611 -0.6875 16.59765625 C-3.73433328 17.12776407 -6.65926083 17.09340739 -9.75 17.0625 C-10.92046875 17.05347656 -12.0909375 17.04445313 -13.296875 17.03515625 C-14.18890625 17.02355469 -15.0809375 17.01195312 -16 17 C-16.33 16.34 -16.66 15.68 -17 15 C-13.00204108 14.04380267 -9.29196078 13.8960408 -5.1875 13.9375 C-4.02605469 13.94652344 -2.86460937 13.95554687 -1.66796875 13.96484375 C-0.78753906 13.97644531 0.09289062 13.98804688 1 14 C1 13.34 1 12.68 1 12 C-0.98 12 -2.96 12 -5 12 C-4.34 10.35 -3.68 8.7 -3 7 C-5.31 6.34 -7.62 5.68 -10 5 C-10 6.98 -10 8.96 -10 11 C-11.125 9.25 -11.125 9.25 -12 7 C-11.125 4.75 -11.125 4.75 -10 3 C-8.68 3.33 -7.36 3.66 -6 4 C-5.67 3.34 -5.34 2.68 -5 2 C-5 2.66 -5 3.32 -5 4 C-2.525 4.99 -2.525 4.99 0 6 C0.1490712 3.9254644 0.1490712 3.9254644 -1 2 C-0.67 1.34 -0.34 0.68 0 0 Z " fill="#44685A" transform="translate(355,251)"/>
<path d="M0 0 C4.12145716 3.47495408 4.62097262 7.94356628 6 13 C2.7 13 -0.6 13 -4 13 C-3.52140759 11.39566191 -3.04210442 9.79153584 -2.5625 8.1875 C-2.29566406 7.29417969 -2.02882812 6.40085938 -1.75390625 5.48046875 C-1.19612127 3.64526945 -0.60655425 1.81966274 0 0 Z " fill="#4B6041" transform="translate(227,244)"/>
<path d="M0 0 C1.90389849 2.85584773 2.69462177 4.9311762 3.625 8.1875 C3.88539063 9.08855469 4.14578125 9.98960937 4.4140625 10.91796875 C4.60742188 11.60503906 4.80078125 12.29210937 5 13 C1.7 13 -1.6 13 -5 13 C-4.35780498 11.01964979 -3.71114356 9.04074744 -3.0625 7.0625 C-2.70285156 5.96035156 -2.34320313 4.85820312 -1.97265625 3.72265625 C-1 1 -1 1 0 0 Z " fill="#4B6041" transform="translate(170,244)"/>
<path d="M0 0 C0.77214844 -0.020625 1.54429688 -0.04125 2.33984375 -0.0625 C4.59375 -0.078125 4.59375 -0.078125 8.5 0.25 C9.49 1.24 10.48 2.23 11.5 3.25 C4.9 3.25 -1.7 3.25 -8.5 3.25 C-8.5 3.91 -8.5 4.57 -8.5 5.25 C-9.49 5.25 -10.48 5.25 -11.5 5.25 C-11.5 3.93 -11.5 2.61 -11.5 1.25 C-7.65785626 -0.03071458 -4.00434108 0.02674017 0 0 Z " fill="#385D18" transform="translate(87.5,201.75)"/>
<path d="M0 0 C2.14642449 3.21963674 3.35881354 6.44429859 4.625 10.0625 C4.85445313 10.69994141 5.08390625 11.33738281 5.3203125 11.99414062 C7 16.738258 7 16.738258 7 19 C4.69 19 2.38 19 0 19 C-0.66 17.02 -1.32 15.04 -2 13 C-1.34 13 -0.68 13 0 13 C0.33 13.66 0.66 14.32 1 15 C1.66 14.34 2.32 13.68 3 13 C3 12.01 3 11.02 3 10 C2.34 10 1.68 10 1 10 C-0.85064319 6.87703962 -1.29356154 4.62059232 -1 1 C-0.67 0.67 -0.34 0.34 0 0 Z " fill="#436658" transform="translate(330,248)"/>
<path d="M0 0 C0.66 0 1.32 0 2 0 C3.32 2.31 4.64 4.62 6 7 C5.34 7 4.68 7 4 7 C3.34 9.64 2.68 12.28 2 15 C1.67 15 1.34 15 1 15 C0.67 10.05 0.34 5.1 0 0 Z " fill="#46633A" transform="translate(191,246)"/>
<path d="M0 0 C1.89492188 0.01353516 1.89492188 0.01353516 3.828125 0.02734375 C4.79234375 0.03894531 5.7565625 0.05054688 6.75 0.0625 C6.75 0.7225 6.75 1.3825 6.75 2.0625 C3.14006828 3.19730527 -0.2342327 3.16265767 -4 3.125 C-5.17046875 3.11597656 -6.3409375 3.10695313 -7.546875 3.09765625 C-8.43890625 3.08605469 -9.3309375 3.07445312 -10.25 3.0625 C-10.58 2.4025 -10.91 1.7425 -11.25 1.0625 C-7.49600202 -0.1414337 -3.91782588 -0.03627617 0 0 Z " fill="#335C48" transform="translate(349.25,264.9375)"/>
<path d="M0 0 C2.64 0 5.28 0 8 0 C8 1.65 8 3.3 8 5 C7.401875 4.814375 6.80375 4.62875 6.1875 4.4375 C3.83591238 3.77906313 3.83591238 3.77906313 1 5 C0.67 3.35 0.34 1.7 0 0 Z " fill="#4A6B5E" transform="translate(361,258)"/>
<path d="M0 0 C7.2 -0.36 7.2 -0.36 10.5 1.125 C12.60705132 3.75881415 12.29101222 5.72611257 12 9 C11.01 9.495 11.01 9.495 10 10 C9.67 7.69 9.34 5.38 9 3 C6.69 2.67 4.38 2.34 2 2 C1.67 2.66 1.34 3.32 1 4 C0.67 2.68 0.34 1.36 0 0 Z " fill="#45563D" transform="translate(138,243)"/>
<path d="M0 0 C1.8871875 0.0309375 1.8871875 0.0309375 3.8125 0.0625 C3.8125 0.7225 3.8125 1.3825 3.8125 2.0625 C1.1725 2.3925 -1.4675 2.7225 -4.1875 3.0625 C-4.1875 3.7225 -4.1875 4.3825 -4.1875 5.0625 C-5.1775 5.0625 -6.1675 5.0625 -7.1875 5.0625 C-7.1875 3.7425 -7.1875 2.4225 -7.1875 1.0625 C-4.43671116 0.14557039 -2.82801087 -0.04636083 0 0 Z " fill="#223C0C" transform="translate(83.1875,201.9375)"/>
<path d="M0 0 C0.66 0 1.32 0 2 0 C2.08131463 1.43655854 2.13933559 2.8744483 2.1875 4.3125 C2.22230469 5.11300781 2.25710937 5.91351563 2.29296875 6.73828125 C2 9 2 9 0.61328125 10.79296875 C-1 12 -1 12 -3 12 C-2.34 13.32 -1.68 14.64 -1 16 C-1.99 16 -2.98 16 -4 16 C-4.33 14.68 -4.66 13.36 -5 12 C-4.175 11.505 -3.35 11.01 -2.5 10.5 C0.15002759 8.33727308 0.15002759 8.33727308 0.33203125 5.953125 C0.31441262 3.96574402 0.16504949 1.98059391 0 0 Z " fill="#44533A" transform="translate(151,244)"/>
<path d="M0 0 C1.9451 2.91765 2.45276317 4.62537285 3 8 C1.68 7.01 0.36 6.02 -1 5 C-1 6.65 -1 8.3 -1 10 C-1.99 10.33 -2.98 10.66 -4 11 C-3.5247412 9.35303396 -3.04468109 7.70745272 -2.5625 6.0625 C-2.29566406 5.14597656 -2.02882812 4.22945312 -1.75390625 3.28515625 C-1 1 -1 1 0 0 Z " fill="#3F5137" transform="translate(170,244)"/>
<path d="M0 0 C2 4 2 4 2 6 C2.66 6.66 3.32 7.32 4 8 C3.01 9.485 3.01 9.485 2 11 C1.34 11 0.68 11 0 11 C0 7.37 0 3.74 0 0 Z " fill="#485636" transform="translate(99,242)"/>
<path d="M0 0 C0.99 0.99 1.98 1.98 3 3 C2.67 3.99 2.34 4.98 2 6 C1.01 6.33 0.02 6.66 -1 7 C-1.33 7.66 -1.66 8.32 -2 9 C-1.34 6.03 -0.68 3.06 0 0 Z " fill="#405037" transform="translate(227,244)"/>
<path d="M0 0 C0.66 0 1.32 0 2 0 C2.33 1.32 2.66 2.64 3 4 C3.99 4 4.98 4 6 4 C6.66 3.34 7.32 2.68 8 2 C8.33 3.32 8.66 4.64 9 6 C6.69 6 4.38 6 2 6 C1.34 4.02 0.68 2.04 0 0 Z " fill="#3D5C50" transform="translate(328,261)"/>
<path d="M0 0 C0.99 0.66 1.98 1.32 3 2 C3 4.15634036 2.5534764 5.92446352 2 8 C1.67 7.01 1.34 6.02 1 5 C0.34 4.67 -0.32 4.34 -1 4 C-1.33 3.01 -1.66 2.02 -2 1 C-1.34 0.67 -0.68 0.34 0 0 Z " fill="#4F6544" transform="translate(203,251)"/>
<path d="M0 0 C0.66 0 1.32 0 2 0 C3.32 2.31 4.64 4.62 6 7 C5.01 6.67 4.02 6.34 3 6 C3 5.34 3 4.68 3 4 C2.01 4.33 1.02 4.66 0 5 C0 3.35 0 1.7 0 0 Z " fill="#3E4B39" transform="translate(191,246)"/>
</svg>
